<?xml version='1.0' encoding='utf-8'?>
<svg xmlns:xlink="http://www.w3.org/1999/xlink" xmlns="http://www.w3.org/2000/svg" id="chart-078df286-5ae3-4971-8a50-51c56f11d418" class="pygal-chart" viewBox="0 0 800 600"><!--Generated with pygal 2.4.0 (etree) ©Kozea 2012-2016 on 2021-03-08--><!--http://pygal.org--><!--http://github.com/Kozea/pygal--><defs><style type="text/css">#chart-078df286-5ae3-4971-8a50-51c56f11d418{-webkit-user-select:none;-webkit-font-smoothing:antialiased;font-family:Consolas,"Liberation Mono",Menlo,Courier,monospace}#chart-078df286-5ae3-4971-8a50-51c56f11d418 .title{font-family:Consolas,"Liberation Mono",Menlo,Courier,monospace;font-size:16px}#chart-078df286-5ae3-4971-8a50-51c56f11d418 .legends .legend text{font-family:Consolas,"Liberation Mono",Menlo,Courier,monospace;font-size:14px}#chart-078df286-5ae3-4971-8a50-51c56f11d418 .axis text{font-family:Consolas,"Liberation Mono",Menlo,Courier,monospace;font-size:10px}#chart-078df286-5ae3-4971-8a50-51c56f11d418 .axis text.major{font-family:Consolas,"Liberation Mono",Menlo,Courier,monospace;font-size:10px}#chart-078df286-5ae3-4971-8a50-51c56f11d418 .text-overlay text.value{font-family:Consolas,"Liberation Mono",Menlo,Courier,monospace;font-size:16px}#chart-078df286-5ae3-4971-8a50-51c56f11d418 .text-overlay text.label{font-family:Consolas,"Liberation Mono",Menlo,Courier,monospace;font-size:10px}#chart-078df286-5ae3-4971-8a50-51c56f11d418 .tooltip{font-family:Consolas,"Liberation Mono",Menlo,Courier,monospace;font-size:14px}#chart-078df286-5ae3-4971-8a50-51c56f11d418 text.no_data{font-family:Consolas,"Liberation Mono",Menlo,Courier,monospace;font-size:64px}
#chart-078df286-5ae3-4971-8a50-51c56f11d418{background-color:rgba(249,249,249,1)}#chart-078df286-5ae3-4971-8a50-51c56f11d418 path,#chart-078df286-5ae3-4971-8a50-51c56f11d418 line,#chart-078df286-5ae3-4971-8a50-51c56f11d418 rect,#chart-078df286-5ae3-4971-8a50-51c56f11d418 circle{-webkit-transition:150ms;-moz-transition:150ms;transition:150ms}#chart-078df286-5ae3-4971-8a50-51c56f11d418 .graph &gt; .background{fill:rgba(249,249,249,1)}#chart-078df286-5ae3-4971-8a50-51c56f11d418 .plot &gt; .background{fill:rgba(255,255,255,1)}#chart-078df286-5ae3-4971-8a50-51c56f11d418 .graph{fill:rgba(0,0,0,.87)}#chart-078df286-5ae3-4971-8a50-51c56f11d418 text.no_data{fill:rgba(0,0,0,1)}#chart-078df286-5ae3-4971-8a50-51c56f11d418 .title{fill:rgba(0,0,0,1)}#chart-078df286-5ae3-4971-8a50-51c56f11d418 .legends .legend text{fill:rgba(0,0,0,.87)}#chart-078df286-5ae3-4971-8a50-51c56f11d418 .legends .legend:hover text{fill:rgba(0,0,0,1)}#chart-078df286-5ae3-4971-8a50-51c56f11d418 .axis .line{stroke:rgba(0,0,0,1)}#chart-078df286-5ae3-4971-8a50-51c56f11d418 .axis .guide.line{stroke:rgba(0,0,0,.54)}#chart-078df286-5ae3-4971-8a50-51c56f11d418 .axis .major.line{stroke:rgba(0,0,0,.87)}#chart-078df286-5ae3-4971-8a50-51c56f11d418 .axis text.major{fill:rgba(0,0,0,1)}#chart-078df286-5ae3-4971-8a50-51c56f11d418 .axis.y .guides:hover .guide.line,#chart-078df286-5ae3-4971-8a50-51c56f11d418 .line-graph .axis.x .guides:hover .guide.line,#chart-078df286-5ae3-4971-8a50-51c56f11d418 .stackedline-graph .axis.x .guides:hover .guide.line,#chart-078df286-5ae3-4971-8a50-51c56f11d418 .xy-graph .axis.x .guides:hover .guide.line{stroke:rgba(0,0,0,1)}#chart-078df286-5ae3-4971-8a50-51c56f11d418 .axis .guides:hover text{fill:rgba(0,0,0,1)}#chart-078df286-5ae3-4971-8a50-51c56f11d418 .reactive{fill-opacity:.7;stroke-opacity:.8}#chart-078df286-5ae3-4971-8a50-51c56f11d418 .ci{stroke:rgba(0,0,0,.87)}#chart-078df286-5ae3-4971-8a50-51c56f11d418 .reactive.active,#chart-078df286-5ae3-4971-8a50-51c56f11d418 .active .reactive{fill-opacity:.8;stroke-opacity:.9;stroke-width:4}#chart-078df286-5ae3-4971-8a50-51c56f11d418 .ci .reactive.active{stroke-width:1.5}#chart-078df286-5ae3-4971-8a50-51c56f11d418 .series text{fill:rgba(0,0,0,1)}#chart-078df286-5ae3-4971-8a50-51c56f11d418 .tooltip rect{fill:rgba(255,255,255,1);stroke:rgba(0,0,0,1);-webkit-transition:opacity 150ms;-moz-transition:opacity 150ms;transition:opacity 150ms}#chart-078df286-5ae3-4971-8a50-51c56f11d418 .tooltip .label{fill:rgba(0,0,0,.87)}#chart-078df286-5ae3-4971-8a50-51c56f11d418 .tooltip .label{fill:rgba(0,0,0,.87)}#chart-078df286-5ae3-4971-8a50-51c56f11d418 .tooltip .legend{font-size:.8em;fill:rgba(0,0,0,.54)}#chart-078df286-5ae3-4971-8a50-51c56f11d418 .tooltip .x_label{font-size:.6em;fill:rgba(0,0,0,1)}#chart-078df286-5ae3-4971-8a50-51c56f11d418 .tooltip .xlink{font-size:.5em;text-decoration:underline}#chart-078df286-5ae3-4971-8a50-51c56f11d418 .tooltip .value{font-size:1.5em}#chart-078df286-5ae3-4971-8a50-51c56f11d418 .bound{font-size:.5em}#chart-078df286-5ae3-4971-8a50-51c56f11d418 .max-value{font-size:.75em;fill:rgba(0,0,0,.54)}#chart-078df286-5ae3-4971-8a50-51c56f11d418 .map-element{fill:rgba(255,255,255,1);stroke:rgba(0,0,0,.54) !important}#chart-078df286-5ae3-4971-8a50-51c56f11d418 .map-element .reactive{fill-opacity:inherit;stroke-opacity:inherit}#chart-078df286-5ae3-4971-8a50-51c56f11d418 .color-0,#chart-078df286-5ae3-4971-8a50-51c56f11d418 .color-0 a:visited{stroke:#F44336;fill:#F44336}#chart-078df286-5ae3-4971-8a50-51c56f11d418 .text-overlay .color-0 text{fill:black}
#chart-078df286-5ae3-4971-8a50-51c56f11d418 text.no_data{text-anchor:middle}#chart-078df286-5ae3-4971-8a50-51c56f11d418 .guide.line{fill:none}#chart-078df286-5ae3-4971-8a50-51c56f11d418 .centered{text-anchor:middle}#chart-078df286-5ae3-4971-8a50-51c56f11d418 .title{text-anchor:middle}#chart-078df286-5ae3-4971-8a50-51c56f11d418 .legends .legend text{fill-opacity:1}#chart-078df286-5ae3-4971-8a50-51c56f11d418 .axis.x text{text-anchor:middle}#chart-078df286-5ae3-4971-8a50-51c56f11d418 .axis.x:not(.web) text[transform]{text-anchor:start}#chart-078df286-5ae3-4971-8a50-51c56f11d418 .axis.x:not(.web) text[transform].backwards{text-anchor:end}#chart-078df286-5ae3-4971-8a50-51c56f11d418 .axis.y text{text-anchor:end}#chart-078df286-5ae3-4971-8a50-51c56f11d418 .axis.y text[transform].backwards{text-anchor:start}#chart-078df286-5ae3-4971-8a50-51c56f11d418 .axis.y2 text{text-anchor:start}#chart-078df286-5ae3-4971-8a50-51c56f11d418 .axis.y2 text[transform].backwards{text-anchor:end}#chart-078df286-5ae3-4971-8a50-51c56f11d418 .axis .guide.line{stroke-dasharray:4,4}#chart-078df286-5ae3-4971-8a50-51c56f11d418 .axis .major.guide.line{stroke-dasharray:6,6}#chart-078df286-5ae3-4971-8a50-51c56f11d418 .horizontal .axis.y .guide.line,#chart-078df286-5ae3-4971-8a50-51c56f11d418 .horizontal .axis.y2 .guide.line,#chart-078df286-5ae3-4971-8a50-51c56f11d418 .vertical .axis.x .guide.line{opacity:0}#chart-078df286-5ae3-4971-8a50-51c56f11d418 .horizontal .axis.always_show .guide.line,#chart-078df286-5ae3-4971-8a50-51c56f11d418 .vertical .axis.always_show .guide.line{opacity:1 !important}#chart-078df286-5ae3-4971-8a50-51c56f11d418 .axis.y .guides:hover .guide.line,#chart-078df286-5ae3-4971-8a50-51c56f11d418 .axis.y2 .guides:hover .guide.line,#chart-078df286-5ae3-4971-8a50-51c56f11d418 .axis.x .guides:hover .guide.line{opacity:1}#chart-078df286-5ae3-4971-8a50-51c56f11d418 .axis .guides:hover text{opacity:1}#chart-078df286-5ae3-4971-8a50-51c56f11d418 .nofill{fill:none}#chart-078df286-5ae3-4971-8a50-51c56f11d418 .subtle-fill{fill-opacity:.2}#chart-078df286-5ae3-4971-8a50-51c56f11d418 .dot{stroke-width:1px;fill-opacity:1}#chart-078df286-5ae3-4971-8a50-51c56f11d418 .dot.active{stroke-width:5px}#chart-078df286-5ae3-4971-8a50-51c56f11d418 .dot.negative{fill:transparent}#chart-078df286-5ae3-4971-8a50-51c56f11d418 text,#chart-078df286-5ae3-4971-8a50-51c56f11d418 tspan{stroke:none !important}#chart-078df286-5ae3-4971-8a50-51c56f11d418 .series text.active{opacity:1}#chart-078df286-5ae3-4971-8a50-51c56f11d418 .tooltip rect{fill-opacity:.95;stroke-width:.5}#chart-078df286-5ae3-4971-8a50-51c56f11d418 .tooltip text{fill-opacity:1}#chart-078df286-5ae3-4971-8a50-51c56f11d418 .showable{visibility:hidden}#chart-078df286-5ae3-4971-8a50-51c56f11d418 .showable.shown{visibility:visible}#chart-078df286-5ae3-4971-8a50-51c56f11d418 .gauge-background{fill:rgba(229,229,229,1);stroke:none}#chart-078df286-5ae3-4971-8a50-51c56f11d418 .bg-lines{stroke:rgba(249,249,249,1);stroke-width:2px}</style><script type="text/javascript">window.pygal = window.pygal || {};window.pygal.config = window.pygal.config || {};window.pygal.config['078df286-5ae3-4971-8a50-51c56f11d418'] = {"allow_interruptions": false, "box_mode": "extremes", "classes": ["pygal-chart"], "css": ["file://style.css", "file://graph.css"], "defs": [], "disable_xml_declaration": false, "dots_size": 2.5, "dynamic_print_values": false, "explicit_size": false, "fill": false, "force_uri_protocol": "https", "formatter": null, "half_pie": false, "height": 600, "include_x_axis": false, "inner_radius": 0, "interpolate": null, "interpolation_parameters": {}, "interpolation_precision": 250, "inverse_y_axis": false, "js": ["//kozea.github.io/pygal.js/2.0.x/pygal-tooltips.min.js"], "legend_at_bottom": false, "legend_at_bottom_columns": null, "legend_box_size": 12, "logarithmic": false, "margin": 20, "margin_bottom": null, "margin_left": null, "margin_right": null, "margin_top": null, "max_scale": 16, "min_scale": 4, "missing_value_fill_truncation": "x", "no_data_text": "No data", "no_prefix": false, "order_min": null, "pretty_print": false, "print_labels": false, "print_values": false, "print_values_position": "center", "print_zeroes": true, "range": null, "rounded_bars": null, "secondary_range": null, "show_dots": false, "show_legend": false, "show_minor_x_labels": true, "show_minor_y_labels": true, "show_only_major_dots": false, "show_x_guides": false, "show_x_labels": true, "show_y_guides": true, "show_y_labels": true, "spacing": 10, "stack_from_top": false, "strict": false, "stroke": true, "stroke_style": null, "style": {"background": "rgba(249, 249, 249, 1)", "ci_colors": [], "colors": ["#F44336", "#3F51B5", "#009688", "#FFC107", "#FF5722", "#9C27B0", "#03A9F4", "#8BC34A", "#FF9800", "#E91E63", "#2196F3", "#4CAF50", "#FFEB3B", "#673AB7", "#00BCD4", "#CDDC39", "#9E9E9E", "#607D8B"], "font_family": "Consolas, \"Liberation Mono\", Menlo, Courier, monospace", "foreground": "rgba(0, 0, 0, .87)", "foreground_strong": "rgba(0, 0, 0, 1)", "foreground_subtle": "rgba(0, 0, 0, .54)", "guide_stroke_dasharray": "4,4", "label_font_family": "Consolas, \"Liberation Mono\", Menlo, Courier, monospace", "label_font_size": 10, "legend_font_family": "Consolas, \"Liberation Mono\", Menlo, Courier, monospace", "legend_font_size": 14, "major_guide_stroke_dasharray": "6,6", "major_label_font_family": "Consolas, \"Liberation Mono\", Menlo, Courier, monospace", "major_label_font_size": 10, "no_data_font_family": "Consolas, \"Liberation Mono\", Menlo, Courier, monospace", "no_data_font_size": 64, "opacity": ".7", "opacity_hover": ".8", "plot_background": "rgba(255, 255, 255, 1)", "stroke_opacity": ".8", "stroke_opacity_hover": ".9", "title_font_family": "Consolas, \"Liberation Mono\", Menlo, Courier, monospace", "title_font_size": 16, "tooltip_font_family": "Consolas, \"Liberation Mono\", Menlo, Courier, monospace", "tooltip_font_size": 14, "transition": "150ms", "value_background": "rgba(229, 229, 229, 1)", "value_colors": [], "value_font_family": "Consolas, \"Liberation Mono\", Menlo, Courier, monospace", "value_font_size": 16, "value_label_font_family": "Consolas, \"Liberation Mono\", Menlo, Courier, monospace", "value_label_font_size": 10}, "title": "Fitness evolution", "tooltip_border_radius": 0, "tooltip_fancy_mode": true, "truncate_label": null, "truncate_legend": null, "width": 800, "x_label_rotation": 0, "x_labels": null, "x_labels_major": null, "x_labels_major_count": null, "x_labels_major_every": null, "x_title": "Generations", "xrange": null, "y_label_rotation": 0, "y_labels": null, "y_labels_major": null, "y_labels_major_count": null, "y_labels_major_every": null, "y_title": "Fitness", "zero": 0, "legends": ["Fitness"]}</script><script type="text/javascript" xlink:href="https://kozea.github.io/pygal.js/2.0.x/pygal-tooltips.min.js" /></defs><title>Fitness evolution</title><g class="graph line-graph vertical"><rect x="0" y="0" width="800" height="600" class="background" /><g transform="translate(80, 46)" class="plot"><rect x="0" y="0" width="700.0" height="508" class="background" /><g class="axis y always_show"><path d="M0.000000 508.000000 h700.000000" class="line" /><g class="guides"><path d="M0.000000 459.111555 h700.000000" class="guide line" /><text x="-5" y="462.6115551115551" class="">780</text><title>780</title></g><g class="guides"><path d="M0.000000 418.447091 h700.000000" class="major guide line" /><text x="-5" y="421.94709137016827" class="major">800</text><title>800</title></g><g class="guides"><path d="M0.000000 377.782628 h700.000000" class="guide line" /><text x="-5" y="381.2826276287815" class="">820</text><title>820</title></g><g class="guides"><path d="M0.000000 337.118164 h700.000000" class="guide line" /><text x="-5" y="340.61816388739464" class="">840</text><title>840</title></g><g class="guides"><path d="M0.000000 296.453700 h700.000000" class="guide line" /><text x="-5" y="299.9537001460078" class="">860</text><title>860</title></g><g class="guides"><path d="M0.000000 255.789236 h700.000000" class="guide line" /><text x="-5" y="259.28923640462097" class="">880</text><title>880</title></g><g class="guides"><path d="M0.000000 215.124773 h700.000000" class="major guide line" /><text x="-5" y="218.62477266323418" class="major">900</text><title>900</title></g><g class="guides"><path d="M0.000000 174.460309 h700.000000" class="guide line" /><text x="-5" y="177.9603089218474" class="">920</text><title>920</title></g><g class="guides"><path d="M0.000000 133.795845 h700.000000" class="guide line" /><text x="-5" y="137.29584518046056" class="">940</text><title>940</title></g><g class="guides"><path d="M0.000000 93.131381 h700.000000" class="guide line" /><text x="-5" y="96.63138143907372" class="">960</text><title>960</title></g><g class="guides"><path d="M0.000000 52.466918 h700.000000" class="guide line" /><text x="-5" y="55.96691769768694" class="">980</text><title>980</title></g><g class="guides"><path d="M0.000000 11.802454 h700.000000" class="major guide line" /><text x="-5" y="15.302453956300099" class="major">1000</text><title>1000</title></g></g><g class="series serie-0 color-0"><path d="M13.461538 111.532051 L15.625773 9.769231 17.790007 172.589744 19.954242 131.884615 22.118476 9.769231 24.282711 30.121795 26.446945 131.884615 28.611180 91.179487 30.775414 233.647436 32.939649 70.826923 35.103883 9.769231 37.268118 9.769231 39.432352 335.410256 41.596587 9.769231 43.760821 172.589744 45.925056 152.237179 48.089290 233.647436 50.253525 9.769231 52.417759 9.769231 54.581994 111.532051 56.746228 91.179487 58.910463 111.532051 61.074697 9.769231 63.238931 91.179487 65.403166 9.769231 67.567400 172.589744 69.731635 9.769231 71.895869 9.769231 74.060104 131.884615 76.224338 254.000000 78.388573 9.769231 80.552807 274.352564 82.717042 9.769231 84.881276 9.769231 87.045511 172.589744 89.209745 70.826923 91.373980 131.884615 93.538214 213.294872 95.702449 9.769231 97.866683 9.769231 100.030918 70.826923 102.195152 9.769231 104.359387 111.532051 106.523621 111.532051 108.687856 172.589744 110.852090 50.474359 113.016325 91.179487 115.180559 111.532051 117.344793 172.589744 119.509028 396.467949 121.673262 9.769231 123.837497 111.532051 126.001731 91.179487 128.165966 213.294872 130.330200 70.826923 132.494435 111.532051 134.658669 111.532051 136.822904 152.237179 138.987138 213.294872 141.151373 172.589744 143.315607 131.884615 145.479842 111.532051 147.644076 111.532051 149.808311 91.179487 151.972545 70.826923 154.136780 111.532051 156.301014 91.179487 158.465249 9.769231 160.629483 9.769231 162.793718 192.942308 164.957952 9.769231 167.122186 213.294872 169.286421 50.474359 171.450655 376.115385 173.614890 9.769231 175.779124 9.769231 177.943359 9.769231 180.107593 9.769231 182.271828 192.942308 184.436062 30.121795 186.600297 213.294872 188.764531 91.179487 190.928766 91.179487 193.093000 9.769231 195.257235 9.769231 197.421469 172.589744 199.585704 9.769231 201.749938 9.769231 203.914173 9.769231 206.078407 9.769231 208.242642 9.769231 210.406876 131.884615 212.571111 9.769231 214.735345 70.826923 216.899580 9.769231 219.063814 9.769231 221.228048 152.237179 223.392283 70.826923 225.556517 70.826923 227.720752 9.769231 229.884986 111.532051 232.049221 152.237179 234.213455 131.884615 236.377690 9.769231 238.541924 91.179487 240.706159 70.826923 242.870393 9.769231 245.034628 111.532051 247.198862 9.769231 249.363097 9.769231 251.527331 233.647436 253.691566 192.942308 255.855800 9.769231 258.020035 254.000000 260.184269 213.294872 262.348504 70.826923 264.512738 70.826923 266.676973 172.589744 268.841207 70.826923 271.005442 9.769231 273.169676 498.230769 275.333910 192.942308 277.498145 9.769231 279.662379 9.769231 281.826614 9.769231 283.990848 152.237179 286.155083 70.826923 288.319317 111.532051 290.483552 9.769231 292.647786 111.532051 294.812021 70.826923 296.976255 9.769231 299.140490 91.179487 301.304724 9.769231 303.468959 9.769231 305.633193 9.769231 307.797428 9.769231 309.961662 9.769231 312.125897 91.179487 314.290131 70.826923 316.454366 192.942308 318.618600 9.769231 320.782835 131.884615 322.947069 9.769231 325.111303 111.532051 327.275538 70.826923 329.439772 9.769231 331.604007 9.769231 333.768241 111.532051 335.932476 50.474359 338.096710 9.769231 340.260945 9.769231 342.425179 131.884615 344.589414 213.294872 346.753648 213.294872 348.917883 9.769231 351.082117 152.237179 353.246352 131.884615 355.410586 192.942308 357.574821 91.179487 359.739055 172.589744 361.903290 274.352564 364.067524 131.884615 366.231759 9.769231 368.395993 274.352564 370.560228 9.769231 372.724462 9.769231 374.888697 70.826923 377.052931 9.769231 379.217165 70.826923 381.381400 50.474359 383.545634 192.942308 385.709869 111.532051 387.874103 70.826923 390.038338 111.532051 392.202572 233.647436 394.366807 91.179487 396.531041 274.352564 398.695276 70.826923 400.859510 213.294872 403.023745 91.179487 405.187979 335.410256 407.352214 91.179487 409.516448 9.769231 411.680683 9.769231 413.844917 9.769231 416.009152 192.942308 418.173386 294.705128 420.337621 213.294872 422.501855 254.000000 424.666090 9.769231 426.830324 9.769231 428.994558 9.769231 431.158793 213.294872 433.323027 213.294872 435.487262 192.942308 437.651496 9.769231 439.815731 70.826923 441.979965 9.769231 444.144200 131.884615 446.308434 172.589744 448.472669 9.769231 450.636903 111.532051 452.801138 9.769231 454.965372 9.769231 457.129607 9.769231 459.293841 9.769231 461.458076 172.589744 463.622310 70.826923 465.786545 9.769231 467.950779 70.826923 470.115014 9.769231 472.279248 91.179487 474.443483 9.769231 476.607717 254.000000 478.771952 294.705128 480.936186 50.474359 483.100420 9.769231 485.264655 131.884615 487.428889 172.589744 489.593124 70.826923 491.757358 172.589744 493.921593 91.179487 496.085827 9.769231 498.250062 9.769231 500.414296 50.474359 502.578531 254.000000 504.742765 9.769231 506.907000 9.769231 509.071234 70.826923 511.235469 70.826923 513.399703 131.884615 515.563938 9.769231 517.728172 152.237179 519.892407 172.589744 522.056641 9.769231 524.220876 9.769231 526.385110 111.532051 528.549345 233.647436 530.713579 9.769231 532.877814 50.474359 535.042048 9.769231 537.206282 9.769231 539.370517 213.294872 541.534751 91.179487 543.698986 152.237179 545.863220 9.769231 548.027455 9.769231 550.191689 152.237179 552.355924 233.647436 554.520158 70.826923 556.684393 50.474359 558.848627 192.942308 561.012862 50.474359 563.177096 9.769231 565.341331 254.000000 567.505565 9.769231 569.669800 152.237179 571.834034 70.826923 573.998269 172.589744 576.162503 70.826923 578.326738 70.826923 580.490972 111.532051 582.655207 131.884615 584.819441 131.884615 586.983675 111.532051 589.147910 9.769231 591.312144 111.532051 593.476379 9.769231 595.640613 9.769231 597.804848 70.826923 599.969082 233.647436 602.133317 254.000000 604.297551 315.057692 606.461786 9.769231 608.626020 9.769231 610.790255 30.121795 612.954489 254.000000 615.118724 294.705128 617.282958 9.769231 619.447193 9.769231 621.611427 91.179487 623.775662 9.769231 625.939896 213.294872 628.104131 91.179487 630.268365 213.294872 632.432600 9.769231 634.596834 9.769231 636.761069 131.884615 638.925303 9.769231 641.089537 30.121795 643.253772 152.237179 645.418006 152.237179 647.582241 70.826923 649.746475 111.532051 651.910710 152.237179 654.074944 192.942308 656.239179 111.532051 658.403413 274.352564 660.567648 9.769231 662.731882 91.179487 664.896117 9.769231 667.060351 9.769231 669.224586 9.769231 671.388820 9.769231 673.553055 9.769231 675.717289 91.179487 677.881524 111.532051 680.045758 192.942308 682.209993 152.237179 684.374227 50.474359 686.538462 437.173077" class="line reactive nofill" /></g></g><g class="titles"><text x="400.0" y="26" class="title plot_title">Fitness evolution</text><text x="430.0" y="580" class="title">Generations</text><text x="0" y="326.0" class="title" transform="rotate(-90 0.000000 300.000000)">Fitness</text></g><g transform="translate(80, 46)" class="plot overlay"><g class="series serie-0 color-0" /></g><g transform="translate(80, 46)" class="plot text-overlay"><g class="series serie-0 color-0" /></g><g transform="translate(80, 46)" class="plot tooltip-overlay"><g transform="translate(0 0)" style="opacity: 0" class="tooltip"><rect rx="0" ry="0" width="0" height="0" class="tooltip-box" /><g class="text" /></g></g></g></svg>